<?xml version="1.0" encoding="utf-8"?>
<!-- Generator: Adobe Illustrator 25.2.0, SVG Export Plug-In . SVG Version: 6.00 Build 0)  -->
<svg version="1.1" id="Layer_1" xmlns="http://www.w3.org/2000/svg" xmlns:xlink="http://www.w3.org/1999/xlink" x="0px" y="0px"
	 viewBox="0 0 16 16" style="enable-background:new 0 0 16 16;" xml:space="preserve">
<circle cx="8" cy="6.17" r="3.31"/>
<path d="M8,0.62c-4.28,0-7.76,3.48-7.76,7.76c0,1.89,0.68,3.63,1.81,4.98c1.42,1.7,3.56,2.78,5.95,2.78c2.49,0,4.72-1.18,6.14-3.02
	c1.02-1.31,1.62-2.96,1.62-4.74C15.76,4.1,12.28,0.62,8,0.62z M13.78,12.49c-1.09-1.62-3.2-2.73-5.63-2.73
	c-2.53,0-4.72,1.2-5.77,2.94c-0.92-1.2-1.47-2.7-1.47-4.32c0-3.91,3.18-7.09,7.09-7.09s7.09,3.18,7.09,7.09
	C15.09,9.91,14.6,11.33,13.78,12.49z"/>
</svg>
