<?xml version="1.0" encoding="utf-8"?>
<!-- Generator: Adobe Illustrator 25.2.0, SVG Export Plug-In . SVG Version: 6.00 Build 0)  -->
<svg version="1.1" id="Layer_1" xmlns="http://www.w3.org/2000/svg" xmlns:xlink="http://www.w3.org/1999/xlink" x="0px" y="0px"
	 viewBox="0 0 285.18 290.22" style="enable-background:new 0 0 285.18 290.22;" xml:space="preserve">
<style type="text/css">
	.st0{fill:#231917;}
	.st1{fill:#C93449;}
	.st2{fill:#D0314A;}
</style>
<path class="st0" d="M269.46,212.62c-0.48-0.48-1.09-0.73-1.81-0.73c-0.32,0-0.65,0.1-0.97,0.3c-0.32,0.2-0.61,0.38-0.85,0.54
	l-0.85,0.85c-0.4,0.4-0.97,0.95-1.69,1.63c-0.73,0.69-1.59,1.35-2.6,2c-1.01,0.65-2.22,1.21-3.63,1.69
	c-1.41,0.48-3.04,0.73-4.9,0.73c-2.9,0-5.42-0.89-7.56-2.66c-2.14-1.77-3.21-4.48-3.21-8.11c0.64,0.16,1.25,0.28,1.81,0.36
	c0.97,0.24,1.89,0.36,2.78,0.36c3.79,0,6.96-0.67,9.5-2c2.54-1.33,4.56-2.92,6.05-4.78c1.49-1.85,2.56-3.81,3.21-5.87
	c0.64-2.06,0.97-3.81,0.97-5.26c0-1.61-0.34-3.19-1.03-4.72c-0.69-1.53-1.63-2.88-2.84-4.05c-1.21-1.17-2.62-2.12-4.23-2.84
	c-1.61-0.73-3.35-1.09-5.2-1.09c-2.66,0-5.5,0.73-8.53,2.18c-3.02,1.45-5.83,3.53-8.41,6.23c-2.58,2.7-4.72,5.95-6.41,9.74
	c-1.69,3.79-2.54,7.98-2.54,12.58c0,0.2,0.01,0.39,0.02,0.59c-0.72,0.93-1.48,1.78-2.31,2.55c-1.05,0.97-2.3,1.86-3.75,2.66
	c-1.45,0.81-3.07,1.21-4.84,1.21c-1.86,0-3.65-0.46-5.38-1.39c-1.73-0.93-3.25-2.04-4.54-3.33c-1.29-1.29-2.32-2.54-3.08-3.75
	c-0.77-1.21-1.15-2.14-1.15-2.78c3.55-1.61,6.73-3.35,9.56-5.2c2.42-1.61,4.64-3.43,6.65-5.44c2.02-2.02,3.02-4.19,3.02-6.53
	c0-2.5-0.83-4.68-2.48-6.53c-1.65-1.85-3.53-2.78-5.63-2.78c-1.29,0-2.54,0.14-3.75,0.42c-1.21,0.28-2.28,0.59-3.21,0.91
	c-0.93,0.32-1.71,0.63-2.36,0.91c-0.65,0.28-1.01,0.47-1.09,0.54c0.08-0.08,0.56-0.62,1.45-1.63c0.89-1.01,1.98-2.3,3.27-3.87
	c1.29-1.57,2.66-3.37,4.11-5.38c1.45-2.02,2.8-4.09,4.05-6.23c1.25-2.14,2.3-4.23,3.15-6.29c0.85-2.06,1.27-3.93,1.27-5.63
	c0-1.05-0.3-2.2-0.91-3.45c-0.61-1.25-1.43-2.42-2.48-3.51c-1.05-1.09-2.22-1.98-3.51-2.66c-1.29-0.68-2.58-1.03-3.87-1.03
	c-3.79,0-7.38,1.45-10.77,4.36c-3.39,2.9-6.53,6.67-9.44,11.31c-2.9,4.64-5.55,9.88-7.92,15.73c-2.38,5.85-4.42,11.7-6.11,17.54
	c-1.69,5.85-2.98,11.43-3.87,16.76c-0.15,0.9-0.28,1.76-0.41,2.61c-0.96,1.43-2,2.7-3.1,3.8c-1.21,1.37-2.6,2.58-4.17,3.63
	c-1.57,1.05-3.17,1.57-4.78,1.57c-1.05,0-1.87-0.32-2.48-0.97c-0.6-0.64-0.91-1.45-0.91-2.42c0-2.02,0.36-4.33,1.09-6.96
	c0.73-2.62,1.53-5.16,2.42-7.62c0.89-2.46,1.69-4.7,2.42-6.71c0.73-2.02,1.09-3.47,1.09-4.36c0-1.05-0.28-1.94-0.85-2.66
	c-0.57-0.73-1.27-1.31-2.12-1.75c-0.85-0.44-1.77-0.77-2.78-0.97c-1.01-0.2-1.96-0.3-2.84-0.3c-0.73-0.97-1.69-1.89-2.9-2.78
	c-1.05-0.73-2.42-1.39-4.11-2c-1.69-0.61-3.75-0.91-6.17-0.91c-3.31,0-6.61,1.05-9.92,3.15c-3.31,2.1-6.29,4.86-8.95,8.29
	c-2.66,3.43-4.82,7.28-6.47,11.55c-1.1,2.84-1.82,5.7-2.19,8.58c-1.17,1.47-2.48,2.8-3.92,4c-1.61,1.37-3.55,2.62-5.81,3.75
	c-2.26,1.13-4.76,1.69-7.5,1.69c-3.39,0-6.23-1.01-8.53-3.02c-2.3-2.01-3.45-5.12-3.45-9.31c0-2.74,0.4-5.46,1.21-8.17
	c0.81-2.7,1.85-5.14,3.15-7.32c1.29-2.18,2.76-3.93,4.42-5.26c1.65-1.33,3.37-2,5.14-2c0.97,0,1.79,0.26,2.48,0.79
	c0.68,0.53,1.03,1.11,1.03,1.75c0,0.65-0.26,1.19-0.79,1.63c-0.53,0.44-1.09,0.93-1.69,1.45c-0.61,0.53-1.15,1.11-1.63,1.75
	c-0.48,0.65-0.73,1.49-0.73,2.54c0,1.37,0.62,2.56,1.88,3.57c1.25,1.01,2.68,1.51,4.29,1.51c0.81,0,1.63-0.28,2.48-0.85
	c0.85-0.56,1.63-1.29,2.36-2.18c0.73-0.89,1.31-1.88,1.75-2.96c0.44-1.09,0.67-2.16,0.67-3.21c0-1.37-0.32-2.76-0.97-4.17
	c-0.65-1.41-1.55-2.68-2.72-3.81c-1.17-1.13-2.6-2.04-4.29-2.72c-1.69-0.68-3.63-1.03-5.81-1.03c-3.07,0-6.21,0.81-9.44,2.42
	c-3.23,1.61-6.15,3.79-8.77,6.53c-2.62,2.74-4.76,5.95-6.41,9.62c-1.65,3.67-2.48,7.52-2.48,11.55c0,0.19,0.01,0.37,0.01,0.56
	c-2.65,3.87-5.79,6.95-9.45,9.24c-3.87,2.42-7.98,3.63-12.34,3.63c-5.08,0-8.99-1.23-11.73-3.69c-2.74-2.46-4.11-6.23-4.11-11.31
	c0-4.11,0.83-7.7,2.48-10.77c1.65-3.06,3.49-5.64,5.5-7.74c2.34-2.42,5-4.52,7.98-6.29c0.81,0.48,1.69,0.89,2.66,1.21
	c0.89,0.32,1.94,0.59,3.15,0.79c1.21,0.2,2.54,0.3,3.99,0.3c2.34,0,4.21-0.62,5.63-1.88c1.41-1.25,2.12-2.48,2.12-3.69
	c0-2.82-2.38-4.23-7.14-4.23c-1.29,0-2.44,0.04-3.45,0.12c-1.01,0.08-1.88,0.16-2.6,0.24c-0.89,0.16-1.65,0.28-2.3,0.36
	c-0.48-0.81-0.93-1.65-1.33-2.54c-0.4-0.81-0.75-1.75-1.03-2.84c-0.28-1.09-0.47-2.32-0.54-3.69c5.32-0.32,10.12-1.03,14.4-2.12
	c4.27-1.09,7.92-2.42,10.95-3.99c3.02-1.57,5.34-3.33,6.96-5.26c1.61-1.94,2.42-3.95,2.42-6.05c0-1.61-0.4-3.08-1.21-4.42
	c-0.81-1.33-1.92-2.46-3.33-3.39c-1.41-0.93-3.07-1.65-4.96-2.18c-1.9-0.52-3.93-0.79-6.11-0.79c-3.15,0-6.37,0.44-9.68,1.33
	c-3.31,0.89-6.43,2.14-9.38,3.75c-2.94,1.61-5.61,3.51-7.98,5.69c-2.38,2.18-4.22,4.52-5.5,7.02c-2.02-1.29-3.59-2.76-4.72-4.42
	c-1.13-1.65-1.69-3.45-1.69-5.38c0-1.45,0.36-2.68,1.09-3.69c0.73-1.01,1.09-1.71,1.09-2.12c0-0.24-0.08-0.48-0.24-0.73
	c-0.16-0.24-0.44-0.36-0.85-0.36c-0.89,0-2.16,0.48-3.81,1.45c-1.65,0.97-3.29,2.22-4.9,3.75c-1.61,1.53-3.01,3.27-4.17,5.2
	c-1.17,1.94-1.75,3.91-1.75,5.93c0,2.9,1.51,5.28,4.54,7.14c3.02,1.86,7.6,3.07,13.73,3.63c0.32,2.1,0.93,3.87,1.81,5.32
	c0.89,1.45,1.81,2.64,2.78,3.57c0.97,0.93,1.85,1.61,2.66,2.06c0.81,0.44,1.25,0.67,1.33,0.67c-0.24,0.08-1.03,0.38-2.36,0.91
	c-1.33,0.53-2.92,1.31-4.78,2.36c-1.86,1.05-3.85,2.34-5.99,3.87c-2.14,1.53-4.11,3.39-5.93,5.57c-1.81,2.18-3.33,4.64-4.54,7.38
	c-1.21,2.74-1.81,5.85-1.81,9.32c0,3.87,0.87,7.2,2.6,9.98c1.73,2.78,3.95,5.06,6.65,6.83c2.7,1.77,5.75,3.06,9.13,3.87
	c3.39,0.81,6.77,1.21,10.16,1.21c3.71,0,7.14-0.51,10.28-1.51c3.15-1.01,5.99-2.32,8.53-3.93c2.54-1.61,4.78-3.45,6.71-5.5
	c0.65-0.69,1.25-1.39,1.83-2.09c0.15,0.32,0.3,0.64,0.47,0.94c1.29,2.34,2.98,4.23,5.08,5.69c2.1,1.45,4.46,2.5,7.08,3.15
	c2.62,0.64,5.22,0.97,7.8,0.97c4.36,0,8.21-0.77,11.55-2.3c3.35-1.53,6.19-3.22,8.53-5.08c0.76-0.62,1.49-1.27,2.2-1.95
	c0.15,0.63,0.34,1.24,0.58,1.83c0.64,1.53,1.51,2.86,2.6,3.99c1.09,1.13,2.38,2,3.87,2.6c1.49,0.61,3.04,0.91,4.66,0.91
	c2.34,0,4.52-0.53,6.53-1.57c2.01-1.05,3.83-2.22,5.44-3.51c1.85-1.45,3.59-3.18,5.2-5.2c0.4,3.39,1.77,5.95,4.11,7.68
	c2.34,1.73,5.2,2.6,8.59,2.6c2.98,0,5.75-0.77,8.29-2.3c2.54-1.53,4.74-3.22,6.59-5.08c0.09-0.09,0.17-0.19,0.26-0.28
	c-0.01,0.42-0.02,0.84-0.02,1.24c0,1.29,0.47,2.34,1.39,3.15c0.93,0.81,2.04,1.45,3.33,1.94c1.29,0.48,2.6,0.83,3.93,1.03
	c1.33,0.2,2.4,0.3,3.21,0.3c0.89,0,1.47-0.22,1.75-0.67c0.28-0.44,0.42-1.03,0.42-1.75c0-5.81,0.61-11.03,1.81-15.67
	c1.21-4.64,2.78-8.59,4.72-11.86c1.94-3.27,4.05-5.79,6.35-7.56c2.3-1.77,4.54-2.66,6.71-2.66c1.85,0,2.78,1.13,2.78,3.39
	c0,2.42-0.91,4.52-2.72,6.29c-1.81,1.77-3.79,3.35-5.93,4.72c-2.14,1.37-4.11,2.56-5.93,3.57c-1.81,1.01-2.72,1.92-2.72,2.72
	c0,1.86,0.74,3.91,2.24,6.17c1.49,2.26,3.35,4.38,5.56,6.35c2.22,1.98,4.62,3.63,7.2,4.96c2.58,1.33,4.96,2,7.14,2
	c2.9,0,5.63-0.77,8.17-2.3c2.54-1.53,4.74-3.22,6.59-5.08c0.98-0.98,1.93-2.04,2.84-3.15c1.04,2.13,2.47,3.97,4.29,5.51
	c1.85,1.57,4.07,2.8,6.65,3.69c2.58,0.89,5.4,1.33,8.47,1.33c3.31,0,6.23-0.53,8.77-1.57c2.54-1.05,4.74-2.22,6.59-3.51
	c2.1-1.45,3.99-3.18,5.69-5.2c0.24-0.4,0.48-0.77,0.73-1.09c0.16-0.32,0.34-0.62,0.55-0.91c0.2-0.28,0.3-0.58,0.3-0.91
	C270.19,213.67,269.94,213.1,269.46,212.62z M243.21,198.34c0.81-2.18,1.83-4.23,3.08-6.17c1.25-1.94,2.68-3.59,4.29-4.96
	c1.61-1.37,3.27-2.06,4.96-2.06c1.45,0,2.18,0.81,2.18,2.42c0,1.29-0.4,2.86-1.21,4.72c-0.81,1.86-1.92,3.65-3.33,5.38
	c-1.41,1.74-3.08,3.21-5.02,4.42c-1.94,1.21-3.99,1.81-6.17,1.81C242,202.38,242.4,200.52,243.21,198.34z M49.53,153.52
	c1.29-1.98,2.74-3.67,4.36-5.08c1.61-1.41,3.35-2.52,5.2-3.33c1.85-0.81,3.71-1.21,5.56-1.21c1.69,0,3.15,0.38,4.36,1.15
	c1.21,0.77,1.81,1.8,1.81,3.08c0,1.77-0.61,3.39-1.81,4.84s-2.9,2.7-5.08,3.75c-2.18,1.05-4.74,1.86-7.68,2.42
	c-2.95,0.57-6.15,0.85-9.62,0.85C47.27,157.66,48.24,155.5,49.53,153.52z M145.16,199.37c-1.17,3.11-2.6,6.07-4.29,8.89
	c-1.69,2.82-3.49,5.2-5.38,7.14c-1.9,1.94-3.57,2.9-5.02,2.9c-2.34,0-3.51-1.81-3.51-5.44c0-2.5,0.48-5.32,1.45-8.47
	c0.97-3.15,2.2-6.07,3.69-8.77c1.49-2.7,3.16-4.98,5.02-6.84c1.85-1.85,3.67-2.78,5.44-2.78c1.21,0,2.24,0.42,3.08,1.27
	c0.85,0.85,1.27,2.16,1.27,3.93C146.91,193.55,146.33,196.27,145.16,199.37z M195.12,182.13c-1.65,1.77-3.13,3.27-4.42,4.48
	c1.94-5.32,3.89-10.22,5.87-14.7c1.98-4.48,3.87-8.33,5.69-11.55c1.82-3.22,3.51-5.73,5.08-7.5c1.57-1.77,2.92-2.66,4.05-2.66
	c1.45,0,2.18,0.81,2.18,2.42c0,1.21-0.38,2.74-1.15,4.6c-0.77,1.86-1.77,3.83-3.02,5.93c-1.25,2.1-2.68,4.28-4.29,6.53
	c-1.61,2.26-3.27,4.46-4.96,6.59C198.45,178.4,196.77,180.36,195.12,182.13z"/>
<path class="st1" d="M34.96,138.68c-3.01-19.82,3.23-32.53,20.11-41.38c2.38-1.25,3.4-2.23,3.2-5.23
	c-0.85-12.6,5.35-21.07,16.45-26.39c12.34-5.91,25.72-7.71,38.98-10c11.79-2.03,23.68-3.6,34.97-7.81
	c12.29-4.59,21.69-12.54,19.32-27.75c-0.6-3.86,1.55-3.42,4.05-3.38c33.87,0.51,60.35,31.96,54.98,65.66
	c-0.62,3.87,0.18,5.78,3.3,8.25c19.94,15.8,28.59,36.23,23.72,61.61c-1.47,7.66-5.3,14.28-11.09,19.78
	c1.22-7.01,4.43-13.42,5.12-20.57c2.15-22.32-7.55-38.71-24.78-51.7c-2.42-1.82-3.11-0.49-4.41,0.96
	c-19.04,21.21-44.14,24.41-70.48,23.86c10.41-1.85,20.99-3.04,31.2-6.21c24.09-7.49,38.73-25.93,38.44-48.53
	c-0.29-22.76-18.11-44.02-40.47-48.45c-3.27-0.65-4.46-0.38-4.16,3.54c1.23,16.49-4.28,24.94-19.82,30.94
	c-15.73,6.08-32.56,6.88-48.89,10.05c-8.61,1.67-17.16,3.42-25.06,7.48c-10.13,5.2-15.55,13.19-14.65,24.76
	c0.25,3.27-0.43,4.88-3.72,5.99c-12.23,4.16-19,13.21-21.84,25.51C38.7,132.77,38.16,135.94,34.96,138.68z"/>
<path class="st0" d="M234.81,236.32c-5.46,11.24-10.92,22.05-15.95,33.05c-2.33,5.11-5.97,8.01-11.15,9.68
	c-10.88,3.51-22.11,4.9-33.42,5.64c-29.51,1.93-58.98,2.1-88.25-3.12c-2.52-0.45-5.02-1.06-7.51-1.65
	c-6.86-1.61-11.74-5.03-14.16-12.28c-2.48-7.41-6.23-14.39-9.58-21.93c4.98-0.12,7.85,1.86,9.33,6.24c0.88,2.62,2.39,5.03,3.27,7.65
	c3.54,10.59,10.72,15.8,21.96,16.14c5.49,0.16,10.16,0.08,12.65-5.89c1.46-3.5,3.2-2.64,4.62,0.23c2.8,5.66,7.32,7.56,13.59,7.38
	c12.18-0.34,24.39-0.14,36.58,0.03c8.79,0.12,17.67,0.75,20.64-11.13c4.21,4.97,5.7,11.07,13.22,9.87
	c9.56-1.52,19.44-1.58,24.12-12.47c2.78-6.47,6.07-12.71,8.87-19.17C225.78,239.63,229.29,236.94,234.81,236.32z"/>
<path class="st2" d="M192.71,62.11c11,22.21,4.22,38.13-18.45,44.74c-15.36,4.47-31.25,4.27-47.03,4.89
	c-9.6,0.38-19.23,0.1-28.81,1.27c-6.54,0.8-12.99,1.66-20.04,6.53c2.51-7.1,6.71-9.83,11.8-11.55c7.78-2.63,15.9-3.21,24-3.56
	c13.66-0.59,27.34-0.79,40.89-2.9C179.55,97.72,189.81,87.21,192.71,62.11z"/>
</svg>
